<svg width="142" height="20" viewBox="0 0 142 20" fill="none" xmlns="http://www.w3.org/2000/svg">
<path d="M30.001 11.7783C29.6627 11.7783 29.4134 11.8692 29.2512 12.0497C29.089 12.2301 29.0059 12.5054 29 12.8743V13.6335C29 14.0065 29.0831 14.2818 29.2473 14.4582C29.4115 14.6347 29.6667 14.7229 30.0109 14.7229C30.3551 14.7229 30.5905 14.636 30.7527 14.4636C30.9149 14.2912 30.996 14.0225 31 13.6589V12.9171C31 12.5322 30.9189 12.2461 30.7567 12.059C30.5945 11.8719 30.3432 11.7783 30.001 11.7783Z" fill="white"/>
<path d="M14.2981 11.7783H14V14.7229H14.2459C14.5197 14.7229 14.7121 14.6437 14.8242 14.4868C14.9363 14.3298 14.9949 14.0576 15 13.6728V12.902C15 12.4881 14.9465 12.1992 14.8408 12.0353C14.735 11.8714 14.5541 11.7867 14.2994 11.7783H14.2981Z" fill="white"/>
<path d="M39.9636 16.9011C39.7549 15.8956 38.8554 15.8522 38.5682 15.8133C38.4866 15.1684 38.2103 -5.9646 11.2969 1.6543L9.37403 6.37047C9.37403 6.37047 5.26151 8.65823 5.17204 15.0816L0 16.8801C0 16.8801 0.335908 19.6078 2.60093 19.6302C4.37779 19.6482 11.774 18.7295 19.9771 18.6352C19.9771 18.6352 23.3095 18.6412 23.4916 18.6427C28.6982 18.6846 31.6554 19.132 37.1822 19.4866C40.221 19.6811 40.0515 17.329 39.9636 16.9026V16.9011ZM11.3235 8.71958C10.8479 8.40537 10.8181 7.73206 11.2592 7.37296C19.0871 1.0154 26.3986 2.83334 29.9916 4.35951C30.1124 4.41038 30.0481 4.58395 29.9209 4.55253C22.1966 2.63883 16.4391 6.37047 13.9857 8.22432C12.4396 9.39289 11.3235 8.71958 11.3235 8.71958ZM16.111 13.5225C16.111 14.1495 15.9368 14.6432 15.5899 14.9993C15.243 15.3569 14.7643 15.535 14.1537 15.535H12.8571V10.759H14.1819C14.7674 10.759 15.2336 10.9355 15.5805 11.2901C15.9274 11.6447 16.1047 12.1295 16.1126 12.746V13.5195L16.111 13.5225ZM20.0948 14.0672C20.0901 14.5639 19.9473 14.944 19.6647 15.2073C19.3822 15.4707 18.9772 15.6023 18.4498 15.6023C17.9224 15.6023 17.5033 15.4692 17.2192 15.2028C16.9351 14.9365 16.7938 14.5505 16.7938 14.0447V10.762H17.8125V14.0477C17.8125 14.3185 17.8581 14.5131 17.9507 14.6283C18.0433 14.7435 18.2081 14.8018 18.4498 14.8018C18.6915 14.8018 18.8564 14.745 18.9458 14.6298C19.0353 14.5146 19.0808 14.326 19.084 14.0642V10.762H20.0948V14.0687V14.0672ZM23.738 15.5365H20.8624V10.7605H23.7317V11.5639H21.8733V12.6921H23.4492V13.4687H21.8733V14.7345H23.738V15.535V15.5365ZM25.4631 14.5056C25.5996 14.7031 25.8241 14.8018 26.1365 14.8018C26.3358 14.8018 26.4975 14.7629 26.6215 14.6866L26.711 14.6283V13.753H26.0015V13.0243H27.725V14.9948C27.5303 15.1953 27.2902 15.348 27.0076 15.4497C26.7235 15.5515 26.4143 15.6023 26.0768 15.6023C25.5007 15.6023 25.0534 15.4318 24.7348 15.0921C24.4161 14.7525 24.2513 14.2572 24.2434 13.6078V12.749C24.2434 12.0906 24.3941 11.5849 24.6955 11.2288C24.9969 10.8742 25.4364 10.6961 26.0156 10.6961C26.5587 10.6961 26.97 10.8233 27.2462 11.0792C27.5225 11.335 27.6826 11.736 27.7265 12.2821H26.7424C26.7157 11.9784 26.6482 11.7704 26.543 11.6612C26.4378 11.5505 26.273 11.4951 26.047 11.4951C25.7739 11.4951 25.5761 11.5909 25.4521 11.7809C25.3281 11.9709 25.2637 12.2747 25.259 12.6891V13.5555C25.259 13.9909 25.3281 14.3066 25.4631 14.5056ZM31.9678 13.5794C31.9678 14.2198 31.8092 14.718 31.4906 15.0712C31.1735 15.4258 30.7324 15.6023 30.1674 15.6023C29.6023 15.6023 29.1643 15.4273 28.8426 15.0756C28.5208 14.724 28.3591 14.2333 28.3544 13.6018V12.7849C28.3544 12.1295 28.5145 11.6163 28.8331 11.2482C29.1518 10.8802 29.5944 10.6961 30.1611 10.6961C30.7277 10.6961 31.1578 10.8772 31.4796 11.2393C31.8014 11.6014 31.9631 12.1086 31.9678 12.7624V13.5794Z" fill="white"/>
<path d="M118.305 5.88907L120 0.981445H104.694L103 5.88907H118.305Z" fill="white"/>
<path d="M118.305 12.7602L120 7.85254H104.694L103 12.7602H118.305Z" fill="white"/>
<path d="M118.305 19.6303L120 14.7227H104.694L103 19.6303H118.305Z" fill="white"/>
<path d="M61.3259 10.7425C60.8813 10.074 60.1522 9.53361 59.1592 9.13751C58.1489 8.73552 56.7992 8.46606 55.1479 8.33943L51.7666 8.04935C50.8238 7.96542 50.1891 7.80492 49.8245 7.55754C49.4427 7.29986 49.2495 6.96119 49.2495 6.55036C49.2495 5.99671 49.5716 5.57853 50.2048 5.30759C50.7924 5.05727 51.5906 4.92916 52.5758 4.92916C53.319 4.92916 53.971 5.00426 54.5147 5.15445C55.0693 5.30612 55.5061 5.52846 55.8141 5.81412C56.089 6.06886 56.2729 6.3663 56.3593 6.69761H61.5208C61.4155 5.60062 60.9991 4.62289 60.2811 3.78652C59.519 2.90156 58.4773 2.20508 57.1842 1.71916C55.8832 1.22882 54.3717 0.981445 52.6952 0.981445C51.0187 0.981445 49.4223 1.20673 48.1433 1.64848C46.8753 2.08728 45.876 2.74106 45.169 3.59215C44.4667 4.43736 44.1116 5.50638 44.1116 6.76976C44.1116 8.30998 44.6599 9.55128 45.7409 10.4583C46.8329 11.3727 48.6367 11.9338 51.102 12.1237L54.18 12.3902C55.2311 12.4742 55.9241 12.6391 56.2964 12.8938C56.6861 13.1603 56.8825 13.5122 56.8825 13.9378C56.8825 14.54 56.5463 14.9906 55.8801 15.2778C55.261 15.5457 54.3921 15.6812 53.3001 15.6812C52.5098 15.6812 51.809 15.5929 51.2182 15.4191C50.618 15.2424 50.1341 14.9833 49.7805 14.6519C49.4584 14.3486 49.251 13.9952 49.1631 13.5991H44C44.0628 14.7462 44.4619 15.7755 45.191 16.6575C45.9593 17.5895 47.0403 18.3258 48.4026 18.8441C49.7727 19.3654 51.3895 19.6304 53.2058 19.6304C55.0222 19.6304 56.54 19.3624 57.8551 18.8323C59.1624 18.3066 60.1915 17.5601 60.9143 16.6133C61.6339 15.6709 62 14.5592 62 13.309C62 12.2813 61.7737 11.4184 61.3275 10.7469L61.3259 10.7425Z" fill="white"/>
<path d="M69.2301 0.981445L63 18.6489H68.8788L72.9985 4.89149L77.0966 18.6489H83L76.7454 0.981445H69.2301Z" fill="white"/>
<path d="M99.354 9.51523H90.6497V5.32788H100V0.981445H85V18.6489H90.6497V13.8617H99.354V9.51523Z" fill="white"/>
<path d="M137.585 13.1129L137.765 13.021C140.324 11.7176 140.861 9.57653 140.861 8.00901V6.24738C140.861 3.81728 138.787 0.981445 132.938 0.981445H123V18.6489H128.706V13.8412H131.782L135.497 18.6489H142L137.585 13.1129ZM132.751 9.63491H128.708V5.18631H132.751C134.754 5.18631 135.757 5.91169 135.819 7.40477C135.759 8.90953 134.754 9.63491 132.751 9.63491Z" fill="white"/>
</svg>
